<svg xmlns="http://www.w3.org/2000/svg" width="208.37" height="35" viewBox="0 0 208.37 35"><rect class="svg__rect" x="0" y="0" width="111.17" height="35" fill="#8FC965"/><rect class="svg__rect" x="109.17" y="0" width="99.2" height="35" fill="#5D9741"/><path class="svg__text" d="M15.70 22L14.22 22L14.22 13.47L19.64 13.47L19.64 14.66L15.70 14.66L15.70 17.20L19.13 17.20L19.13 18.38L15.70 18.38L15.70 22ZM23.66 19.16L23.66 19.16L23.66 13.47L25.14 13.47L25.14 19.18Q25.14 20.03 25.57 20.48Q26.01 20.93 26.85 20.93L26.85 20.93Q28.56 20.93 28.56 19.13L28.56 19.13L28.56 13.47L30.04 13.47L30.04 19.17Q30.04 20.53 29.17 21.32Q28.30 22.12 26.85 22.12L26.85 22.12Q25.39 22.12 24.52 21.33Q23.66 20.55 23.66 19.16ZM40.19 22L34.61 22L34.61 13.47L40.14 13.47L40.14 14.66L36.09 14.66L36.09 17.02L39.59 17.02L39.59 18.19L36.09 18.19L36.09 20.82L40.19 20.82L40.19 22ZM49.74 22L44.38 22L44.38 13.47L45.86 13.47L45.86 20.82L49.74 20.82L49.74 22ZM59.44 22L53.86 22L53.86 13.47L59.40 13.47L59.40 14.66L55.34 14.66L55.34 17.02L58.85 17.02L58.85 18.19L55.34 18.19L55.34 20.82L59.44 20.82L59.44 22ZM66.09 22L63.64 22L63.64 13.47L66.15 13.47Q67.29 13.47 68.16 13.97Q69.04 14.48 69.52 15.40Q70.00 16.33 70.00 17.52L70.00 17.52L70.00 17.95Q70.00 19.16 69.52 20.08Q69.03 21.00 68.14 21.50Q67.24 22 66.09 22L66.09 22ZM65.12 14.66L65.12 20.82L66.08 20.82Q67.25 20.82 67.87 20.09Q68.50 19.36 68.51 17.99L68.51 17.99L68.51 17.52Q68.51 16.13 67.91 15.40Q67.30 14.66 66.15 14.66L66.15 14.66L65.12 14.66ZM83.55 22L80.44 22L80.44 13.47L83.36 13.47Q84.81 13.47 85.57 14.05Q86.32 14.63 86.32 15.78L86.32 15.78Q86.32 16.36 86.01 16.83Q85.69 17.30 85.08 17.56L85.08 17.56Q85.77 17.75 86.15 18.26Q86.53 18.78 86.53 19.51L86.53 19.51Q86.53 20.71 85.76 21.36Q84.99 22 83.55 22L83.55 22ZM81.92 18.15L81.92 20.82L83.57 20.82Q84.27 20.82 84.66 20.47Q85.05 20.13 85.05 19.51L85.05 19.51Q85.05 18.18 83.69 18.15L83.69 18.15L81.92 18.15ZM81.92 14.66L81.92 17.06L83.38 17.06Q84.07 17.06 84.46 16.75Q84.85 16.43 84.85 15.86L84.85 15.86Q84.85 15.23 84.49 14.95Q84.13 14.66 83.36 14.66L83.36 14.66L81.92 14.66ZM93.04 18.86L90.17 13.47L91.82 13.47L93.78 17.51L95.74 13.47L97.39 13.47L94.53 18.86L94.53 22L93.04 22L93.04 18.86Z" fill="#FFFFFF"/><path class="svg__text" d="M125.56 22L123.36 22L123.36 13.60L125.31 13.60L128.27 18.45L131.15 13.60L133.10 13.60L133.13 22L130.95 22L130.92 17.55L128.76 21.17L127.71 21.17L125.56 17.67L125.56 22ZM139.71 22L137.28 22L140.99 13.60L143.33 13.60L147.05 22L144.58 22L143.92 20.37L140.37 20.37L139.71 22ZM142.14 15.93L141.06 18.61L143.22 18.61L142.14 15.93ZM152.99 15.48L150.41 15.48L150.41 13.60L157.93 13.60L157.93 15.48L155.37 15.48L155.37 22L152.99 22L152.99 15.48ZM161.88 17.80L161.88 17.80Q161.88 16.54 162.48 15.54Q163.07 14.55 164.12 13.99Q165.18 13.43 166.49 13.43L166.49 13.43Q167.65 13.43 168.57 13.84Q169.49 14.25 170.11 15.02L170.11 15.02L168.60 16.39Q167.78 15.40 166.62 15.40L166.62 15.40Q165.93 15.40 165.40 15.70Q164.87 16 164.57 16.54Q164.27 17.09 164.27 17.80L164.27 17.80Q164.27 18.51 164.57 19.05Q164.87 19.60 165.40 19.90Q165.93 20.20 166.62 20.20L166.62 20.20Q167.78 20.20 168.60 19.22L168.60 19.22L170.11 20.58Q169.50 21.35 168.57 21.76Q167.65 22.17 166.49 22.17L166.49 22.17Q165.18 22.17 164.12 21.61Q163.07 21.05 162.48 20.05Q161.88 19.06 161.88 17.80ZM177.02 22L174.65 22L174.65 13.60L177.02 13.60L177.02 16.76L180.26 16.76L180.26 13.60L182.64 13.60L182.64 22L180.26 22L180.26 18.72L177.02 18.72L177.02 22ZM189.22 22L186.79 22L190.50 13.60L192.84 13.60L196.56 22L194.09 22L193.43 20.37L189.88 20.37L189.22 22ZM191.65 15.93L190.57 18.61L192.73 18.61L191.65 15.93Z" fill="#FFFFFF" x="122.17"/></svg>