<svg xmlns="http://www.w3.org/2000/svg" width="242.21" height="35" viewBox="0 0 242.21 35"><rect class="svg__rect" x="0" y="0" width="127.49000000000001" height="35" fill="#31C4F3"/><rect class="svg__rect" x="125.49000000000001" y="0" width="116.72" height="35" fill="#389AD5"/><path class="svg__text" d="M15.60 22L13.63 13.47L15.10 13.47L16.43 19.88L18.06 13.47L19.30 13.47L20.91 19.89L22.22 13.47L23.69 13.47L21.72 22L20.31 22L18.68 15.77L17.02 22L15.60 22ZM27.49 18.00L27.49 18.00L27.49 17.52Q27.49 16.28 27.94 15.32Q28.38 14.37 29.18 13.86Q29.99 13.35 31.03 13.35Q32.08 13.35 32.88 13.85Q33.69 14.35 34.13 15.29Q34.57 16.23 34.57 17.48L34.57 17.48L34.57 17.96Q34.57 19.21 34.14 20.16Q33.71 21.10 32.90 21.61Q32.09 22.12 31.05 22.12L31.05 22.12Q30.01 22.12 29.20 21.61Q28.39 21.10 27.94 20.17Q27.50 19.23 27.49 18.00ZM28.98 17.46L28.98 17.96Q28.98 19.36 29.52 20.13Q30.07 20.90 31.05 20.90L31.05 20.90Q32.03 20.90 32.56 20.15Q33.09 19.40 33.09 17.96L33.09 17.96L33.09 17.51Q33.09 16.09 32.55 15.34Q32.02 14.58 31.03 14.58L31.03 14.58Q30.07 14.58 29.53 15.33Q28.99 16.09 28.98 17.46L28.98 17.46ZM40.52 22L39.04 22L39.04 13.47L42.04 13.47Q43.51 13.47 44.32 14.13Q45.12 14.79 45.12 16.05L45.12 16.05Q45.12 16.90 44.71 17.48Q44.29 18.06 43.56 18.37L43.56 18.37L45.47 21.92L45.47 22L43.88 22L42.17 18.71L40.52 18.71L40.52 22ZM40.52 14.66L40.52 17.52L42.04 17.52Q42.79 17.52 43.22 17.15Q43.64 16.77 43.64 16.11L43.64 16.11Q43.64 15.43 43.25 15.05Q42.86 14.68 42.08 14.66L42.08 14.66L40.52 14.66ZM51.00 22L49.51 22L49.51 13.47L51.00 13.47L51.00 17.47L51.82 16.46L54.31 13.47L56.11 13.47L52.94 17.25L56.29 22L54.53 22L51.96 18.31L51.00 19.34L51.00 22ZM61.63 22L60.15 22L60.15 13.47L61.63 13.47L61.63 22ZM67.92 22L66.44 22L66.44 13.47L67.92 13.47L71.74 19.54L71.74 13.47L73.21 13.47L73.21 22L71.73 22L67.92 15.95L67.92 22ZM77.70 18.13L77.70 18.13L77.70 17.46Q77.70 15.53 78.63 14.44Q79.56 13.35 81.21 13.35L81.21 13.35Q82.64 13.35 83.47 14.05Q84.31 14.76 84.48 16.08L84.48 16.08L83.03 16.08Q82.78 14.54 81.24 14.54L81.24 14.54Q80.25 14.54 79.73 15.26Q79.21 15.98 79.19 17.37L79.19 17.37L79.19 18.02Q79.19 19.40 79.77 20.17Q80.36 20.93 81.39 20.93L81.39 20.93Q82.53 20.93 83.01 20.42L83.01 20.42L83.01 18.75L81.25 18.75L81.25 17.62L84.49 17.62L84.49 20.89Q84.03 21.50 83.21 21.81Q82.39 22.12 81.34 22.12L81.34 22.12Q80.27 22.12 79.44 21.63Q78.62 21.14 78.17 20.24Q77.72 19.33 77.70 18.13ZM94.81 18.00L94.81 18.00L94.81 17.52Q94.81 16.28 95.26 15.32Q95.70 14.37 96.50 13.86Q97.31 13.35 98.35 13.35Q99.39 13.35 100.20 13.85Q101.01 14.35 101.45 15.29Q101.89 16.23 101.89 17.48L101.89 17.48L101.89 17.96Q101.89 19.21 101.46 20.16Q101.02 21.10 100.22 21.61Q99.41 22.12 98.36 22.12L98.36 22.12Q97.33 22.12 96.52 21.61Q95.70 21.10 95.26 20.17Q94.82 19.23 94.81 18.00ZM96.30 17.46L96.30 17.96Q96.30 19.36 96.84 20.13Q97.39 20.90 98.36 20.90L98.36 20.90Q99.35 20.90 99.88 20.15Q100.41 19.40 100.41 17.96L100.41 17.96L100.41 17.51Q100.41 16.09 99.87 15.34Q99.34 14.58 98.35 14.58L98.35 14.58Q97.39 14.58 96.85 15.33Q96.31 16.09 96.30 17.46L96.30 17.46ZM107.84 22L106.36 22L106.36 13.47L107.84 13.47L111.65 19.54L111.65 13.47L113.12 13.47L113.12 22L111.64 22L107.84 15.95L107.84 22Z" fill="#FFFFFF"/><path class="svg__text" d="M141.76 22L139.03 13.60L141.48 13.60L143.17 18.96L144.95 13.60L147.13 13.60L148.82 19.01L150.59 13.60L152.86 13.60L150.13 22L147.59 22L145.98 16.89L144.30 22L141.76 22ZM164.11 22L157.37 22L157.37 13.60L163.96 13.60L163.96 15.44L159.72 15.44L159.72 16.85L163.46 16.85L163.46 18.63L159.72 18.63L159.72 20.17L164.11 20.17L164.11 22ZM173.46 22L168.92 22L168.92 13.60L173.22 13.60Q174.82 13.60 175.66 14.19Q176.50 14.79 176.50 15.79L176.50 15.79Q176.50 16.39 176.21 16.87Q175.91 17.34 175.37 17.62L175.37 17.62Q176.09 17.87 176.50 18.41Q176.91 18.94 176.91 19.70L176.91 19.70Q176.91 20.80 176.02 21.40Q175.13 22 173.46 22L173.46 22ZM171.27 18.58L171.27 20.28L173.26 20.28Q174.51 20.28 174.51 19.43L174.51 19.43Q174.51 18.58 173.26 18.58L173.26 18.58L171.27 18.58ZM171.27 15.31L171.27 16.94L172.90 16.94Q174.10 16.94 174.10 16.12L174.10 16.12Q174.10 15.31 172.90 15.31L172.90 15.31L171.27 15.31ZM181.04 21.24L181.04 21.24L181.82 19.49Q182.38 19.86 183.13 20.09Q183.87 20.32 184.59 20.32L184.59 20.32Q185.96 20.32 185.96 19.64L185.96 19.64Q185.96 19.28 185.57 19.11Q185.18 18.93 184.31 18.74L184.31 18.74Q183.37 18.53 182.73 18.30Q182.09 18.06 181.64 17.55Q181.19 17.03 181.19 16.16L181.19 16.16Q181.19 15.39 181.60 14.77Q182.02 14.15 182.86 13.79Q183.69 13.43 184.90 13.43L184.90 13.43Q185.73 13.43 186.53 13.62Q187.34 13.80 187.95 14.17L187.95 14.17L187.22 15.93Q186.02 15.28 184.89 15.28L184.89 15.28Q184.18 15.28 183.86 15.49Q183.54 15.70 183.54 16.04L183.54 16.04Q183.54 16.37 183.92 16.54Q184.30 16.71 185.15 16.89L185.15 16.89Q186.11 17.10 186.74 17.33Q187.37 17.56 187.84 18.07Q188.30 18.58 188.30 19.46L188.30 19.46Q188.30 20.21 187.88 20.83Q187.46 21.44 186.62 21.80Q185.78 22.17 184.58 22.17L184.58 22.17Q183.56 22.17 182.60 21.92Q181.64 21.67 181.04 21.24ZM195.25 22L192.88 22L192.88 13.60L195.25 13.60L195.25 22ZM202.22 15.48L199.64 15.48L199.64 13.60L207.16 13.60L207.16 15.48L204.59 15.48L204.59 22L202.22 22L202.22 15.48ZM218.28 22L211.53 22L211.53 13.60L218.12 13.60L218.12 15.44L213.89 15.44L213.89 16.85L217.62 16.85L217.62 18.63L213.89 18.63L213.89 20.17L218.28 20.17L218.28 22ZM222.49 21.24L222.49 21.24L223.27 19.49Q223.84 19.86 224.58 20.09Q225.32 20.32 226.05 20.32L226.05 20.32Q227.41 20.32 227.42 19.64L227.42 19.64Q227.42 19.28 227.03 19.11Q226.64 18.93 225.77 18.74L225.77 18.74Q224.82 18.53 224.18 18.30Q223.55 18.06 223.09 17.55Q222.64 17.03 222.64 16.16L222.64 16.16Q222.64 15.39 223.06 14.77Q223.48 14.15 224.31 13.79Q225.15 13.43 226.36 13.43L226.36 13.43Q227.18 13.43 227.99 13.62Q228.79 13.80 229.41 14.17L229.41 14.17L228.68 15.93Q227.47 15.28 226.34 15.28L226.34 15.28Q225.63 15.28 225.31 15.49Q224.99 15.70 224.99 16.04L224.99 16.04Q224.99 16.37 225.37 16.54Q225.76 16.71 226.61 16.89L226.61 16.89Q227.57 17.10 228.20 17.33Q228.83 17.56 229.29 18.07Q229.75 18.58 229.75 19.46L229.75 19.46Q229.75 20.21 229.34 20.83Q228.92 21.44 228.08 21.80Q227.23 22.17 226.03 22.17L226.03 22.17Q225.01 22.17 224.05 21.92Q223.09 21.67 222.49 21.24Z" fill="#FFFFFF" x="138.49"/></svg>